<?xml version="1.0" encoding="UTF-8" standalone="no"?>
<!-- Created with Inkscape (http://www.inkscape.org/) -->

<svg
   width="26.63364mm"
   height="25.976898mm"
   viewBox="0 0 26.63364 25.976898"
   version="1.1"
   id="svg5"
   xml:space="preserve"
   xmlns:inkscape="http://www.inkscape.org/namespaces/inkscape"
   xmlns:sodipodi="http://sodipodi.sourceforge.net/DTD/sodipodi-0.dtd"
   xmlns="http://www.w3.org/2000/svg"
   xmlns:svg="http://www.w3.org/2000/svg"><sodipodi:namedview
     id="namedview7"
     pagecolor="#ffffff"
     bordercolor="#000000"
     borderopacity="0.25"
     inkscape:showpageshadow="2"
     inkscape:pageopacity="0.0"
     inkscape:pagecheckerboard="0"
     inkscape:deskcolor="#d1d1d1"
     inkscape:document-units="mm"
     showgrid="false" /><defs
     id="defs2" /><g
     inkscape:label="Calque 1"
     inkscape:groupmode="layer"
     id="layer1"
     transform="translate(-49.637448,-190.42077)"><rect
       style="opacity:0;fill:none;stroke-width:2.23062"
       id="rect1590"
       width="50.194492"
       height="50.818794"
       x="69.968681"
       y="179.03671" /><rect
       style="opacity:0;fill:#3191da;fill-opacity:1;stroke:#c83f3f;stroke-width:2.86527;stroke-opacity:0.690083"
       id="rect1646"
       width="50.779408"
       height="50.286404"
       x="69.111755"
       y="179.0202" /><path
       d="m 62.954271,190.42077 c -7.35311,0 -13.31682,5.96257 -13.31682,13.31682 0,5.8838 3.81527,10.87537 9.10759,12.63654 0.66473,0.12331 0.88002,-0.28982 0.88002,-0.64034 v -2.47915 c -3.7043,0.80568 -4.47556,-1.57138 -4.47556,-1.57138 -0.60592,-1.53918 -1.47927,-1.94871 -1.47927,-1.94871 -1.20851,-0.82672 0.0921,-0.80899 0.0921,-0.80899 1.33723,0.0931 2.0408,1.37275 2.0408,1.37275 1.18742,2.03527 3.11502,1.44711 3.8752,1.10641 0.11874,-0.86004 0.46387,-1.44821 0.84561,-1.78001 -2.95744,-0.33848 -6.06691,-1.48037 -6.06691,-6.58182 0,-1.45487 0.52046,-2.64231 1.37163,-3.57449 -0.13762,-0.33638 -0.59371,-1.69122 0.12985,-3.52448 0,0 1.11861,-0.35736 3.66323,1.36494 1.06202,-0.29528 2.20061,-0.44275 3.33254,-0.44833 1.13193,0.005 2.27162,0.15309 3.33586,0.44833 2.5424,-1.7223 3.65879,-1.36494 3.65879,-1.36494 0.72465,1.83436 0.26856,3.18935 0.13094,3.52448 0.85451,0.93218 1.37053,2.12072 1.37053,3.57449 0,5.11475 -3.11503,6.24111 -6.08023,6.5707 0.47717,0.41272 0.91331,1.22297 0.91331,2.46586 v 3.65434 c 0,0.354 0.21307,0.77015 0.8889,0.63921 5.28788,-1.76336 9.09871,-6.75383 9.09871,-12.63541 0,-7.35425 -5.96261,-13.31682 -13.31682,-13.31682 z"
       id="path1931"
       style="stroke-width:1.10973" /></g></svg>
