<?xml version="1.0" encoding="UTF-8" standalone="no"?>
<!-- Created with Inkscape (http://www.inkscape.org/) -->

<svg
   width="29.506699mm"
   height="31.556198mm"
   viewBox="0 0 29.506699 31.556198"
   version="1.1"
   id="svg5"
   xml:space="preserve"
   xmlns:inkscape="http://www.inkscape.org/namespaces/inkscape"
   xmlns:sodipodi="http://sodipodi.sourceforge.net/DTD/sodipodi-0.dtd"
   xmlns="http://www.w3.org/2000/svg"
   xmlns:svg="http://www.w3.org/2000/svg"><sodipodi:namedview
     id="namedview7"
     pagecolor="#ffffff"
     bordercolor="#000000"
     borderopacity="0.25"
     inkscape:showpageshadow="2"
     inkscape:pageopacity="0.0"
     inkscape:pagecheckerboard="0"
     inkscape:deskcolor="#d1d1d1"
     inkscape:document-units="mm"
     showgrid="false" /><defs
     id="defs2"><clipPath
       clipPathUnits="userSpaceOnUse"
       id="clipPath2435"><rect
         style="fill:none;stroke:#000000;stroke-width:1.67307;stroke-dasharray:none"
         id="rect2437"
         width="48.704578"
         height="48.704578"
         x="252.4904"
         y="-88.900307"
         transform="scale(1,-1)" /></clipPath></defs><g
     inkscape:label="Calque 1"
     inkscape:groupmode="layer"
     id="layer1"
     transform="translate(-79.991388,-187.70222)"><g
       id="g2713"><g
         id="g2698"><rect
           style="fill:#ffffff;fill-opacity:1;stroke:none;stroke-width:0.3311;stroke-dasharray:none"
           id="rect2439-7"
           width="27.383278"
           height="28.143911"
           x="82.114815"
           y="189.33727" /></g><g
         transform="matrix(0.66298331,0,0,-0.66298331,-87.405537,245.90752)"
         id="g3019"
         clip-path="url(#clipPath2435)"><path
           d="M 31.1516,37.709 H 62.1872 V 47.898 H 42.383 V 86.772 H 31.1516 Z"
           style="fill:#000000;fill-opacity:1;fill-rule:evenodd;stroke:none"
           id="path16"
           inkscape:connector-curvature="0" /><path
           d="M 77.9001,37.709 V 71.502 H 66.6677 V 37.709 Z m -5.6162,38.407 c 3.917,0 6.355,2.595 6.355,5.84 -0.073,3.315 -2.438,5.837 -6.2803,5.837 -3.8428,0 -6.355,-2.522 -6.355,-5.837 0,-3.245 2.4375,-5.84 6.207,-5.84 h 0.073 z"
           style="fill:#000000;fill-opacity:1;fill-rule:evenodd;stroke:none"
           id="path18"
           inkscape:connector-curvature="0" /><path
           d="m 83.1154,37.709 h 11.2325 v 18.872 c 0,1.01 0.073,2.019 0.3701,2.741 0.8115,2.017 2.6596,4.107 5.7627,4.107 4.0649,0 5.6909,-3.1 5.6909,-7.64 v -18.08 h 11.2314 v 19.377 c 0,10.38 -5.542,15.21 -12.9321,15.21 -6.0591,0 -8.7197,-3.387 -10.1978,-5.694 h 0.075 v 4.9 H 83.1156 c 0.1475,-3.171 0,-33.793 0,-33.793 z"
           style="fill:#000000;fill-opacity:1;fill-rule:evenodd;stroke:none"
           id="path20"
           inkscape:connector-curvature="0" /><path
           d="M 133.2487,86.772 H 122.0158 V 37.709 h 11.2329 v 10.956 l 2.8072,3.534 8.7939,-14.49 h 13.8179 l -14.7783,20.977 12.9316,14.272 h -13.5225 c 0,0 -9.2368,-12.769 -10.0498,-14.283 z"
           style="fill:#000000;fill-opacity:1;fill-rule:evenodd;stroke:none"
           id="path22"
           inkscape:connector-curvature="0" /><path
           d="m 188.7062,51.805 c 0.1475,0.868 0.3697,2.533 0.3697,4.415 0,8.736 -4.4346,17.604 -16.1094,17.604 -12.4888,0 -18.2524,-9.877 -18.2524,-18.835 0,-11.08 7.02,-18 19.2866,-18 4.8774,0 9.3843,0.72 13.0796,2.234 l -1.4785,7.418 c -3.0293,-1.005 -6.1329,-1.507 -9.9751,-1.507 -5.2466,0 -9.8277,2.153 -10.1978,6.743 l 23.2773,-0.07 z m -23.3505,7.599 c 0.2954,2.884 2.2168,7.138 7.02,7.138 5.0976,0 6.2807,-4.543 6.2807,-7.138 z"
           style="fill:#000000;fill-opacity:1;fill-rule:evenodd;stroke:none"
           id="path24"
           inkscape:connector-curvature="0" /><path
           d="M 216.801,86.772 V 69.788 h -0.1475 c -1.626,2.377 -5.0259,3.963 -9.5322,3.963 -8.6465,0 -16.2573,-6.92 -16.1841,-18.741 0,-10.958 6.8726,-18.094 15.4443,-18.094 4.6553,0 9.0889,2.019 11.3057,5.912 h 0.2222 l 0.4433,-5.119 h 9.9766 c -0.148,2.379 -0.2969,6.488 -0.2969,10.524 v 38.539 z m 0,-33.421 c 0,-0.864 -0.074,-1.73 -0.2222,-2.45 -0.6641,-3.1 -3.3252,-5.262 -6.5757,-5.262 -4.6557,0 -7.6855,3.748 -7.6855,9.659 0,5.55 2.5869,10.019 7.7588,10.019 3.4726,0 5.9116,-2.378 6.5771,-5.333 0.1475,-0.65 0.1475,-1.371 0.1475,-2.019 z"
           style="fill:#000000;fill-opacity:1;fill-rule:evenodd;stroke:none"
           id="path26"
           inkscape:connector-curvature="0" /><g
           id="g2525"><path
             d="m 257.9216,79.00675 c 0,1.48 1.2302,2.6805 2.7478,2.6805 h 31.688 c 1.51755,0 2.7478,-1.2005 2.7478,-2.6805 v -32.0585 c 0,-1.4805 -1.23025,-2.6805 -2.7478,-2.6805 h -31.688 c -1.5176,0 -2.7478,1.2 -2.7478,2.6805 z"
             style="fill:#000102;fill-opacity:1;fill-rule:nonzero;stroke:none;stroke-width:0.5"
             id="path14"
             inkscape:connector-curvature="0" /><path
             d="m 269.1931,50.36325 v 16.897 h -5.61625 v -16.897 z m -2.80815,19.204 c 1.9585,0 3.1775,1.2975 3.1775,2.919 -0.0365,1.658 -1.219,2.9195 -3.14035,2.9195 -1.92115,0 -3.17725,-1.2615 -3.17725,-2.9195 0,-1.6215 1.21875,-2.919 3.1035,-2.919 h 0.0365 z"
             style="fill:#ffffff;fill-opacity:1;fill-rule:evenodd;stroke:none;stroke-width:0.5"
             id="path28"
             inkscape:connector-curvature="0" /><path
             d="m 272.30075,50.36325 h 5.6162 v 9.436 c 0,0.505 0.0365,1.0095 0.1848,1.3705 0.406,1.009 1.3301,2.054 2.8816,2.054 2.03225,0 2.8452,-1.5495 2.8452,-3.821 v -9.0395 h 5.61575 v 9.6885 c 0,5.19 -2.77075,7.605 -6.4658,7.605 -3.0298,0 -4.3599,-1.6935 -5.0989,-2.847 h 0.0375 v 2.4505 h -5.6162 c 0.0737,-1.5855 0,-16.897 0,-16.897 z"
             style="fill:#ffffff;fill-opacity:1;fill-rule:evenodd;stroke:none;stroke-width:0.5"
             id="path30"
             inkscape:connector-curvature="0" /></g></g></g><rect
       style="opacity:0;fill:none;stroke-width:2.23062"
       id="rect1590"
       width="50.194492"
       height="50.818794"
       x="69.968681"
       y="179.03671" /><rect
       style="opacity:0;fill:#3191da;fill-opacity:1;stroke:#c83f3f;stroke-width:2.86527;stroke-opacity:0.690083"
       id="rect1646"
       width="50.779408"
       height="50.286404"
       x="69.111755"
       y="179.0202" /></g></svg>
