<?xml version="1.0" encoding="UTF-8" standalone="no"?>
<!-- Created with Inkscape (http://www.inkscape.org/) -->

<svg
   width="24.651726mm"
   height="24.808823mm"
   viewBox="0 0 24.651726 24.808823"
   version="1.1"
   id="svg5"
   xml:space="preserve"
   xmlns:inkscape="http://www.inkscape.org/namespaces/inkscape"
   xmlns:sodipodi="http://sodipodi.sourceforge.net/DTD/sodipodi-0.dtd"
   xmlns="http://www.w3.org/2000/svg"
   xmlns:svg="http://www.w3.org/2000/svg"><sodipodi:namedview
     id="namedview7"
     pagecolor="#ffffff"
     bordercolor="#000000"
     borderopacity="0.25"
     inkscape:showpageshadow="2"
     inkscape:pageopacity="0.0"
     inkscape:pagecheckerboard="0"
     inkscape:deskcolor="#d1d1d1"
     inkscape:document-units="mm"
     showgrid="false" /><defs
     id="defs2"><clipPath
       clipPathUnits="userSpaceOnUse"
       id="clipPath3056"><rect
         style="fill:none;stroke:#000000;stroke-width:1.67307;stroke-dasharray:none"
         id="rect3058"
         width="48.704578"
         height="48.704578"
         x="252.4904"
         y="-88.900314"
         transform="scale(1,-1)" /></clipPath></defs><g
     inkscape:label="Calque 1"
     inkscape:groupmode="layer"
     id="layer1"
     transform="translate(-81.835955,-191.24824)"><path
       id="path14"
       clip-path="url(#clipPath3056)"
       style="fill:#000102;fill-opacity:1;fill-rule:nonzero;stroke:none;stroke-width:0.5"
       d="m 277.91711,64.866932 c -0.0121,-0.01875 -0.0256,-0.03842 -0.0374,-0.0569 h 0.0374 z"
       transform="matrix(0.66298331,0,0,-0.66298331,-87.405537,245.90752)" /><path
       id="path3152"
       clip-path="url(#clipPath3056)"
       style="fill:#000102;fill-opacity:1;fill-rule:nonzero;stroke:none;stroke-width:0.5"
       d="m 260.66937,81.687527 c -1.51758,0 -2.74757,-1.200541 -2.74757,-2.680539 V 46.948087 c 0,-1.480498 1.22999,-2.680539 2.74757,-2.680539 h 31.68789 c 1.51755,0 2.74757,1.200041 2.74757,2.680539 v 32.058901 c 0,1.479998 -1.23002,2.680539 -2.74757,2.680539 z m 5.75237,-6.281612 c 0.12008,0 0.23732,-0.0052 0.35153,-0.01481 0.11421,-0.0096 0.22546,-0.024 0.33361,-0.04287 0.10814,-0.01887 0.2138,-0.04248 0.31568,-0.07015 0.10187,-0.02767 0.2,-0.05905 0.29541,-0.09509 0.0954,-0.03604 0.18797,-0.07604 0.2767,-0.120036 0.0887,-0.044 0.17379,-0.09189 0.25566,-0.143419 0.0819,-0.05153 0.16059,-0.107383 0.2354,-0.166024 0.0748,-0.05864 0.14602,-0.120181 0.21357,-0.18551 0.0675,-0.06533 0.13088,-0.134182 0.19097,-0.205775 0.0601,-0.07159 0.11672,-0.146267 0.16914,-0.223703 0.0524,-0.07744 0.10119,-0.157215 0.14575,-0.240072 0.0446,-0.08286 0.0851,-0.168584 0.1216,-0.25644 0.0365,-0.08786 0.0684,-0.178039 0.0967,-0.27047 0.0283,-0.09243 0.0527,-0.187136 0.0725,-0.283721 0.0198,-0.09659 0.0349,-0.195096 0.046,-0.295412 0.0111,-0.100316 0.018,-0.202701 0.0203,-0.306325 0,-0.101344 -0.005,-0.201515 -0.014,-0.30009 -0.009,-0.09858 -0.0235,-0.195405 -0.0421,-0.290736 -0.0186,-0.09533 -0.0419,-0.188992 -0.0694,-0.280603 -0.0275,-0.09161 -0.0589,-0.181495 -0.0951,-0.268911 -0.0362,-0.08742 -0.0769,-0.172136 -0.1216,-0.254881 -0.0447,-0.08275 -0.0936,-0.163251 -0.14653,-0.240851 -0.0529,-0.0776 -0.10978,-0.152504 -0.1707,-0.224483 -0.0609,-0.07198 -0.12617,-0.140672 -0.19487,-0.206555 -0.0687,-0.06588 -0.14124,-0.128537 -0.21746,-0.187848 -0.0762,-0.05931 -0.15577,-0.115318 -0.2393,-0.167582 -0.0835,-0.05226 -0.17052,-0.101016 -0.26111,-0.145758 -0.0906,-0.04474 -0.18474,-0.08563 -0.28216,-0.122374 -0.0974,-0.03674 -0.19841,-0.06916 -0.30243,-0.09743 -0.10402,-0.02827 -0.21153,-0.05239 -0.32192,-0.07171 -0.11038,-0.01932 -0.22333,-0.03453 -0.33984,-0.04443 -0.11651,-0.0099 -0.23614,-0.01481 -0.35855,-0.01481 h -0.0366 c -0.1178,0 -0.23284,0.0049 -0.3453,0.01481 -0.11246,0.0099 -0.22208,0.02511 -0.32893,0.04443 -0.10685,0.01932 -0.21159,0.04344 -0.31256,0.07171 -0.10097,0.02827 -0.19825,0.06069 -0.29307,0.09743 -0.0948,0.03674 -0.18674,0.07763 -0.27515,0.122374 -0.0884,0.04474 -0.17394,0.09349 -0.25566,0.145758 -0.0817,0.05226 -0.15985,0.108271 -0.23462,0.167582 -0.0748,0.05931 -0.14603,0.121965 -0.21357,0.187848 -0.0675,0.06588 -0.13092,0.134576 -0.19096,0.206555 -0.06,0.07198 -0.11687,0.146883 -0.16914,0.224483 -0.0523,0.0776 -0.1,0.158105 -0.1442,0.240851 -0.0442,0.08275 -0.0849,0.167465 -0.12082,0.254881 -0.0359,0.08742 -0.0677,0.1773 -0.0951,0.268911 -0.0274,0.09161 -0.0501,0.185273 -0.0686,0.280603 -0.0185,0.09533 -0.0327,0.192161 -0.0421,0.290736 -0.009,0.09857 -0.014,0.198746 -0.014,0.30009 0,0.103624 0.005,0.206009 0.0148,0.306325 0.01,0.100316 0.0238,0.198827 0.0429,0.295412 0.019,0.09658 0.0428,0.19129 0.0709,0.283721 0.0281,0.09243 0.0613,0.182615 0.0982,0.27047 0.0369,0.08786 0.0777,0.173583 0.12315,0.25644 0.0455,0.08286 0.0952,0.162635 0.14888,0.240072 0.0537,0.07744 0.11141,0.152109 0.17304,0.223703 0.0616,0.07159 0.12715,0.140447 0.19642,0.205775 0.0693,0.06533 0.14239,0.12687 0.21902,0.18551 0.0766,0.05864 0.15715,0.114494 0.24086,0.166024 0.0837,0.05153 0.17063,0.09942 0.26111,0.143419 0.0905,0.044 0.1844,0.08399 0.28138,0.120036 0.097,0.03604 0.19691,0.06743 0.30009,0.09509 0.10319,0.02767 0.2097,0.05128 0.3188,0.07015 0.1091,0.01887 0.22121,0.03323 0.33594,0.04287 0.11474,0.0096 0.23147,0.01481 0.35154,0.01481 z m 16.55714,-7.749321 c 0.11547,0 0.22935,-0.0023 0.34296,-0.007 0.11361,-0.0047 0.22665,-0.01157 0.33828,-0.02105 0.11163,-0.0095 0.2225,-0.02161 0.33205,-0.03585 0.10954,-0.01425 0.21768,-0.03084 0.32503,-0.04989 0.10735,-0.01904 0.21376,-0.04006 0.3188,-0.06391 0.10503,-0.02386 0.20839,-0.05081 0.311,-0.07951 0.10261,-0.0287 0.20391,-0.0592 0.30398,-0.09275 0.10008,-0.03355 0.19955,-0.06991 0.29698,-0.108344 0.0974,-0.03844 0.19295,-0.07903 0.28761,-0.122374 0.0947,-0.04334 0.18804,-0.0897 0.27983,-0.137963 0.0918,-0.04827 0.18245,-0.09878 0.27125,-0.151993 0.0888,-0.05321 0.17542,-0.10862 0.26111,-0.166803 0.0857,-0.05818 0.17007,-0.119217 0.25255,-0.182392 0.0825,-0.06318 0.16325,-0.129013 0.24241,-0.197202 0.0792,-0.06819 0.15656,-0.138787 0.23227,-0.212011 0.0757,-0.07322 0.14999,-0.14854 0.22215,-0.226821 0.0722,-0.07828 0.14273,-0.159049 0.21123,-0.24241 0.0685,-0.08336 0.13482,-0.169537 0.19954,-0.257999 0.0647,-0.08846 0.1278,-0.179223 0.18863,-0.272808 0.0608,-0.09359 0.11933,-0.189667 0.17615,-0.288398 0.0568,-0.09873 0.11176,-0.200089 0.16447,-0.303986 0.0527,-0.103898 0.10351,-0.210489 0.15199,-0.319576 0.0485,-0.109087 0.0946,-0.220867 0.13874,-0.335165 0.0441,-0.114298 0.0858,-0.231223 0.1255,-0.350754 0.0397,-0.119531 0.0771,-0.241556 0.11224,-0.366343 0.0351,-0.124786 0.0686,-0.252648 0.099,-0.382711 0.0304,-0.130063 0.0577,-0.262159 0.0834,-0.397521 0.0256,-0.135362 0.0494,-0.273986 0.0702,-0.414669 0.0207,-0.140684 0.0388,-0.283452 0.0546,-0.429479 0.0157,-0.146026 0.0292,-0.295235 0.0398,-0.446626 0.0106,-0.151392 0.018,-0.305437 0.0234,-0.462216 0.005,-0.156778 0.009,-0.316397 0.009,-0.478584 V 50.36287 h -5.61596 v 9.040096 c 0,0.07098 -7.4e-4,0.140905 -0.002,0.210452 -0.002,0.06955 -0.004,0.138494 -0.007,0.206555 -0.003,0.06806 -0.008,0.135352 -0.0125,0.201879 -0.005,0.06653 -0.0106,0.132262 -0.0172,0.197201 -0.007,0.06494 -0.0136,0.129223 -0.0218,0.192525 -0.008,0.0633 -0.0173,0.125455 -0.0273,0.187069 -0.01,0.06161 -0.021,0.122516 -0.0327,0.182392 -0.0117,0.05988 -0.0247,0.118849 -0.0382,0.176936 -0.0135,0.05809 -0.0276,0.115232 -0.0429,0.17148 -0.0153,0.05625 -0.0312,0.111666 -0.0483,0.166023 -0.0171,0.05436 -0.0356,0.10815 -0.0546,0.160567 -0.019,0.05242 -0.0384,0.103127 -0.0592,0.153553 -0.0208,0.05043 -0.0427,0.100491 -0.0655,0.148875 -0.0227,0.04838 -0.0463,0.09557 -0.0709,0.141861 -0.0247,0.04629 -0.0506,0.09147 -0.0772,0.135624 -0.0266,0.04415 -0.054,0.08743 -0.0826,0.12939 -0.0286,0.04196 -0.0583,0.08266 -0.0889,0.122374 -0.0306,0.03971 -0.0625,0.07794 -0.0951,0.115359 -0.0326,0.03742 -0.0659,0.07405 -0.10055,0.109123 -0.0346,0.03508 -0.0701,0.06865 -0.10678,0.101329 -0.0367,0.03268 -0.075,0.06408 -0.1138,0.09431 -0.0388,0.03023 -0.0783,0.05956 -0.11926,0.0873 -0.0409,0.02774 -0.0832,0.05431 -0.12627,0.0795 -0.0431,0.02519 -0.0873,0.04912 -0.1325,0.07171 -0.0453,0.02259 -0.0913,0.04397 -0.13875,0.06392 -0.0474,0.01995 -0.0961,0.03809 -0.14576,0.05534 -0.0497,0.01725 -0.10086,0.03305 -0.15277,0.04755 -0.0519,0.0145 -0.10483,0.02805 -0.15901,0.03975 -0.0542,0.0117 -0.10954,0.02155 -0.16602,0.0304 -0.0565,0.0089 -0.11424,0.01665 -0.17304,0.0226 -0.0588,0.006 -0.11813,0.01025 -0.17927,0.01325 -0.0611,0.003 -0.12356,0.0047 -0.18707,0.0047 -0.0485,0 -0.0962,-0.0011 -0.14342,-0.0031 -0.0473,-0.002 -0.0943,-0.0046 -0.1403,-0.0086 -0.0461,-0.004 -0.0916,-0.009 -0.13641,-0.01481 -0.0448,-0.0058 -0.0889,-0.01263 -0.1325,-0.02026 -0.0436,-0.0076 -0.087,-0.01634 -0.12939,-0.02572 -0.0424,-0.0094 -0.0842,-0.01934 -0.12549,-0.0304 -0.0413,-0.01106 -0.0815,-0.02318 -0.1216,-0.03585 -0.0401,-0.01267 -0.0796,-0.02631 -0.11848,-0.04053 -0.0389,-0.01422 -0.0776,-0.02873 -0.11536,-0.04443 -0.0377,-0.0157 -0.0749,-0.03277 -0.11146,-0.04988 -0.0366,-0.01711 -0.0722,-0.03454 -0.10756,-0.053 -0.0354,-0.01846 -0.0702,-0.03794 -0.10445,-0.05768 -0.0343,-0.01974 -0.0682,-0.03984 -0.10133,-0.0608 -0.0331,-0.02096 -0.0654,-0.04259 -0.0974,-0.0647 -0.064,-0.04422 -0.12604,-0.09032 -0.18551,-0.138742 -0.0595,-0.04842 -0.11646,-0.09911 -0.17148,-0.151214 -0.055,-0.0521 -0.10761,-0.106098 -0.15823,-0.161347 -0.0506,-0.05525 -0.0995,-0.11205 -0.14575,-0.169921 -0.0463,-0.05787 -0.0905,-0.116191 -0.13251,-0.176156 -0.042,-0.05996 -0.0815,-0.120861 -0.11926,-0.182392 -0.0378,-0.06153 -0.0732,-0.12372 -0.10678,-0.186289 -0.0336,-0.06257 -0.0657,-0.125548 -0.0951,-0.188628 -0.0294,-0.06308 -0.0565,-0.126345 -0.0818,-0.189407 -0.0185,-0.04512 -0.0355,-0.09253 -0.0507,-0.14186 -0.0152,-0.04933 -0.0284,-0.100576 -0.0405,-0.153553 -0.0121,-0.05298 -0.0234,-0.10762 -0.0327,-0.163685 -0.009,-0.05606 -0.0172,-0.113665 -0.0242,-0.172259 -0.007,-0.05859 -0.0124,-0.11871 -0.0171,-0.179274 -0.005,-0.06056 -0.009,-0.121974 -0.0117,-0.183951 -0.006,-0.123953 -0.008,-0.250226 -0.008,-0.376476 V 50.36287 h -5.61596 c 0,0 0.004,0.957639 0.0101,2.417864 0.006,1.460223 0.0125,3.423657 0.0172,5.436684 0.002,1.006514 0.004,2.025541 0.005,3.000115 7.2e-4,0.974573 9.5e-4,1.904336 -7.8e-4,2.733541 -0.002,0.829206 -0.005,1.557497 -0.0101,2.127907 -0.003,0.285205 -0.006,0.53111 -0.009,0.730347 -0.004,0.199239 -0.007,0.35221 -0.0117,0.451304 h 5.61596 v -2.3937 c 0.0352,0.05439 0.0704,0.108896 0.10834,0.165244 0.0511,0.07577 0.10485,0.152368 0.16135,0.230718 0.0565,0.07835 0.11602,0.157891 0.1785,0.237733 0.0625,0.07984 0.12743,0.160607 0.19642,0.240851 0.069,0.08024 0.14142,0.160516 0.21747,0.240071 0.038,0.03978 0.077,0.07908 0.11691,0.118477 0.0399,0.0394 0.0806,0.07881 0.12238,0.117698 0.0418,0.03889 0.0848,0.07712 0.12861,0.115359 0.0438,0.03824 0.089,0.07635 0.13484,0.1138 0.0459,0.03745 0.0931,0.07415 0.14108,0.110682 0.048,0.03653 0.0971,0.07287 0.14732,0.108344 0.0502,0.03547 0.10106,0.07017 0.15355,0.104447 0.0525,0.03428 0.10651,0.06838 0.16135,0.101329 0.0548,0.03295 0.11034,0.06517 0.16758,0.09665 0.0572,0.03148 0.11566,0.0621 0.17538,0.09197 0.0597,0.02988 0.12091,0.05838 0.18317,0.08652 0.0623,0.02814 0.1261,0.05558 0.19097,0.08184 0.0649,0.02626 0.13121,0.05136 0.19876,0.07561 0.0675,0.02425 0.13626,0.04805 0.20655,0.07015 0.0703,0.0221 0.14203,0.04254 0.21513,0.06236 0.0731,0.01981 0.14772,0.03873 0.2237,0.05612 0.076,0.01739 0.15335,0.03349 0.23228,0.04833 0.0789,0.01483 0.15891,0.02839 0.24085,0.04053 0.082,0.01214 0.16596,0.02265 0.25099,0.03196 0.085,0.0093 0.17138,0.01704 0.25955,0.02338 0.0882,0.0063 0.17752,0.01157 0.26891,0.01481 0.0914,0.0032 0.18515,0.0047 0.27983,0.0047 z m -19.40215,-0.395962 h 5.61674 V 50.36287 h -5.61674 z"
       transform="matrix(0.66298331,0,0,-0.66298331,-89.161899,245.40571)" /><rect
       style="opacity:0;fill:none;stroke-width:2.23062"
       id="rect1590"
       width="50.194492"
       height="50.818794"
       x="69.968681"
       y="179.03671" /><rect
       style="opacity:0;fill:#3191da;fill-opacity:1;stroke:#c83f3f;stroke-width:2.86527;stroke-opacity:0.690083"
       id="rect1646"
       width="50.779408"
       height="50.286404"
       x="69.111755"
       y="179.0202" /></g></svg>
